<?xml version="1.0" encoding="iso-8859-1"?>
<!-- Generator: Adobe Illustrator 19.0.0, SVG Export Plug-In . SVG Version: 6.00 Build 0)  -->
<svg version="1.1" id="Layer_1" xmlns="http://www.w3.org/2000/svg" xmlns:xlink="http://www.w3.org/1999/xlink" x="0px" y="0px"
	 viewBox="0 0 511.999 511.999" style="enable-background:new 0 0 511.999 511.999;" xml:space="preserve">
<g>
	<g>
		<path d="M350.408,441.244c-0.146-0.72-0.371-1.428-0.653-2.104c-0.281-0.685-0.63-1.338-1.035-1.945
			c-0.405-0.62-0.878-1.194-1.395-1.711c-0.518-0.518-1.091-0.99-1.71-1.395c-0.608-0.404-1.26-0.754-1.947-1.035
			c-0.675-0.281-1.384-0.505-2.104-0.64c-1.451-0.294-2.948-0.294-4.399,0c-0.709,0.135-1.418,0.359-2.104,0.64
			c-0.675,0.281-1.328,0.631-1.935,1.035c-0.619,0.405-1.193,0.878-1.71,1.395c-0.518,0.518-0.99,1.091-1.395,1.711
			c-0.416,0.608-0.754,1.26-1.035,1.945c-0.293,0.676-0.506,1.384-0.653,2.104s-0.214,1.463-0.214,2.194
			c0,0.73,0.068,1.474,0.214,2.194c0.146,0.72,0.36,1.429,0.653,2.104c0.281,0.685,0.619,1.338,1.035,1.945
			c0.405,0.619,0.878,1.193,1.395,1.711c0.518,0.518,1.091,0.99,1.71,1.394c0.608,0.405,1.26,0.754,1.935,1.035
			c0.686,0.281,1.395,0.506,2.104,0.641c0.731,0.146,1.474,0.225,2.205,0.225c0.731,0,1.474-0.079,2.194-0.225
			c0.72-0.135,1.429-0.36,2.104-0.641c0.686-0.281,1.339-0.63,1.947-1.035c0.619-0.404,1.193-0.876,1.71-1.394
			c0.518-0.519,0.99-1.093,1.395-1.711c0.405-0.608,0.754-1.26,1.035-1.945c0.281-0.676,0.506-1.384,0.653-2.104
			c0.146-0.721,0.214-1.464,0.214-2.194C350.622,442.707,350.555,441.963,350.408,441.244z"/>
	</g>
</g>
<g>
	<g>
		<path d="M489.162,89.479c-0.146-0.709-0.36-1.419-0.641-2.104c-0.281-0.676-0.63-1.328-1.035-1.935
			c-0.405-0.62-0.878-1.194-1.395-1.711c-0.518-0.518-1.091-0.99-1.71-1.406c-0.608-0.405-1.26-0.754-1.947-1.035
			c-0.675-0.281-1.384-0.495-2.104-0.641c-1.451-0.293-2.948-0.293-4.399,0c-0.709,0.146-1.418,0.36-2.104,0.641
			c-0.675,0.281-1.328,0.63-1.935,1.035c-0.619,0.416-1.193,0.889-1.71,1.406c-0.518,0.518-0.99,1.091-1.406,1.711
			c-0.405,0.608-0.754,1.259-1.035,1.935c-0.281,0.685-0.495,1.395-0.641,2.104c-0.135,0.73-0.214,1.474-0.214,2.205
			c0,0.73,0.079,1.474,0.214,2.194c0.146,0.719,0.36,1.428,0.641,2.103c0.281,0.686,0.63,1.339,1.035,1.946
			c0.416,0.619,0.889,1.193,1.406,1.71c0.518,0.518,1.091,0.991,1.71,1.395c0.608,0.405,1.26,0.754,1.935,1.035
			c0.686,0.281,1.395,0.495,2.104,0.641c0.731,0.146,1.474,0.225,2.205,0.225c0.731,0,1.474-0.079,2.194-0.225
			c0.72-0.146,1.429-0.36,2.104-0.641c0.686-0.281,1.339-0.63,1.947-1.035c0.619-0.404,1.193-0.878,1.71-1.395
			c2.093-2.092,3.297-4.995,3.297-7.954C489.387,90.953,489.308,90.209,489.162,89.479z"/>
	</g>
</g>
<g>
	<g>
		<path d="M44.897,89.479c-0.146-0.709-0.36-1.419-0.641-2.104c-0.281-0.676-0.63-1.328-1.035-1.935
			c-0.416-0.62-0.889-1.194-1.406-1.711s-1.091-0.99-1.71-1.406c-0.608-0.405-1.26-0.754-1.935-1.035
			c-0.686-0.281-1.395-0.495-2.104-0.641c-1.451-0.293-2.948-0.293-4.399,0c-0.72,0.146-1.429,0.36-2.104,0.641
			c-0.686,0.281-1.339,0.63-1.947,1.035c-0.619,0.416-1.193,0.889-1.71,1.406c-0.518,0.518-0.99,1.091-1.395,1.711
			c-0.405,0.608-0.754,1.259-1.035,1.935c-0.281,0.685-0.495,1.395-0.641,2.104c-0.146,0.73-0.225,1.474-0.225,2.205
			c0,2.959,1.204,5.862,3.297,7.954c0.518,0.518,1.103,0.991,1.71,1.395c0.608,0.405,1.271,0.754,1.947,1.035
			c0.675,0.281,1.384,0.495,2.104,0.641c0.72,0.146,1.463,0.225,2.194,0.225c0.731,0,1.474-0.079,2.205-0.225
			c0.709-0.146,1.418-0.36,2.104-0.641c0.675-0.281,1.328-0.63,1.935-1.035c0.619-0.404,1.193-0.878,1.71-1.395
			c0.518-0.518,0.99-1.091,1.406-1.71c0.405-0.608,0.754-1.26,1.035-1.946c0.281-0.675,0.495-1.383,0.641-2.103
			c0.146-0.721,0.214-1.464,0.214-2.194C45.111,90.953,45.043,90.209,44.897,89.479z"/>
	</g>
</g>
<g>
	<g>
		<path d="M491.53,209.325c0-0.449-0.034-0.891-0.086-1.327c-0.013-0.117-0.036-0.234-0.054-0.351
			c-0.052-0.342-0.117-0.678-0.199-1.009c-0.028-0.113-0.055-0.225-0.087-0.338c-0.114-0.404-0.244-0.8-0.399-1.185
			c-0.011-0.027-0.019-0.056-0.03-0.083c-0.177-0.426-0.383-0.838-0.609-1.238c-0.016-0.028-0.027-0.059-0.043-0.088
			l-58.183-100.775h9.162c6.214,0,11.252-5.038,11.252-11.251s-5.037-11.251-11.252-11.251H343.03h-42.029V11.251
			C301.001,5.038,295.964,0,289.749,0h-67.506c-6.214,0-11.251,5.038-11.251,11.251v69.178h-42.029H70.992
			c-6.214,0-11.251,5.038-11.251,11.251s5.037,11.251,11.251,11.251h9.162L21.972,203.709c-0.017,0.028-0.027,0.06-0.043,0.088
			c-0.226,0.398-0.432,0.81-0.609,1.238c-0.011,0.027-0.019,0.056-0.03,0.083c-0.155,0.385-0.287,0.781-0.399,1.185
			c-0.031,0.111-0.059,0.224-0.087,0.335c-0.082,0.331-0.147,0.668-0.199,1.01c-0.018,0.117-0.039,0.233-0.054,0.351
			c-0.052,0.435-0.086,0.877-0.086,1.327c0,0,0,0.008,0,0.012v40.168c0,28.632,23.294,51.926,51.926,51.926h53.292
			c28.633,0,51.927-23.294,51.927-51.926v-40.168c0-0.003,0-0.008,0-0.008c0-0.453-0.034-0.894-0.086-1.331
			c-0.013-0.117-0.036-0.234-0.054-0.351c-0.052-0.342-0.117-0.678-0.199-1.009c-0.028-0.112-0.055-0.225-0.087-0.338
			c-0.113-0.404-0.244-0.8-0.399-1.185c-0.011-0.027-0.019-0.056-0.03-0.083c-0.177-0.426-0.383-0.838-0.609-1.238
			c-0.016-0.028-0.027-0.058-0.043-0.088l-58.184-100.776h51.048h42.029v272.652H118.47c-6.214,0-11.251,5.038-11.251,11.251v45.329
			h-21.08c-6.214,0-11.251,5.038-11.251,11.251v57.332c0,6.213,5.037,11.252,11.251,11.252h339.718
			c6.214,0,11.252-5.038,11.252-11.252v-57.332c0-6.213-5.037-11.251-11.252-11.251H404.78v-45.329
			c0-6.213-5.037-11.251-11.251-11.251h-92.526V102.932h42.029h51.048l-58.184,100.776c-0.017,0.028-0.027,0.06-0.043,0.088
			c-0.226,0.398-0.432,0.81-0.609,1.238c-0.011,0.027-0.019,0.056-0.03,0.083c-0.155,0.385-0.287,0.781-0.399,1.185
			c-0.031,0.111-0.058,0.224-0.087,0.335c-0.082,0.331-0.147,0.668-0.199,1.01c-0.018,0.117-0.039,0.233-0.054,0.351
			c-0.052,0.435-0.086,0.877-0.086,1.327c0,0,0,0.008,0,0.012v40.168c0,28.632,23.294,51.926,51.927,51.926h53.292
			c28.632,0,51.926-23.294,51.926-51.926v-40.168C491.531,209.333,491.53,209.329,491.53,209.325z M155.106,249.505h-0.001
			c0,16.224-13.199,29.423-29.424,29.423H72.39c-16.224,0-29.423-13.199-29.423-29.423v-28.919h112.139V249.505z M146.869,198.084
			H51.203l47.832-82.849L146.869,198.084z M233.496,22.503h45.003v57.926h-45.003V22.503z M233.496,102.932h45.003v272.653h0
			h-45.003V102.932z M382.276,398.088v45.329c0,6.213,5.037,11.252,11.251,11.252h21.077v34.829H97.391v-34.829h21.035
			c0.015,0,0.029,0.002,0.044,0.002h183.773c6.214,0,11.251-5.038,11.251-11.251s-5.037-11.252-11.251-11.252H129.719v-34.08h92.526
			h67.506H382.276z M412.959,115.234l47.832,82.849h-95.666L412.959,115.234z M469.029,249.505h-0.001
			c0,16.224-13.199,29.423-29.423,29.423h-53.292c-16.224,0-29.424-13.199-29.424-29.423v-28.919h112.139V249.505z"/>
	</g>
</g>
<g>
</g>
<g>
</g>
<g>
</g>
<g>
</g>
<g>
</g>
<g>
</g>
<g>
</g>
<g>
</g>
<g>
</g>
<g>
</g>
<g>
</g>
<g>
</g>
<g>
</g>
<g>
</g>
<g>
</g>
</svg>
